solid 
 facet normal  0.000000e+00 -1.000000e+00  0.000000e+00
   outer loop
     vertex -7.967003e-02 -1.700000e+00  4.077000e-01
     vertex -2.873202e-02 -1.700000e+00  2.219595e-01
     vertex -1.927593e-02 -1.700000e+00  2.198728e-01
   endloop
 endfacet
 facet normal  0.000000e+00 -1.000000e+00  0.000000e+00
   outer loop
     vertex -7.967003e-02 -1.700000e+00  4.077000e-01
     vertex -3.797139e-02 -1.700000e+00  2.248588e-01
     vertex -2.873202e-02 -1.700000e+00  2.219595e-01
   endloop
 endfacet
 facet normal  0.000000e+00 -1.000000e+00  0.000000e+00
   outer loop
     vertex -7.967003e-02 -1.700000e+00  4.077000e-01
     vertex -4.692436e-02 -1.700000e+00  2.285488e-01
     vertex -3.797139e-02 -1.700000e+00  2.248588e-01
   endloop
 endfacet
 facet normal  0.000000e+00 -1.000000e+00  0.000000e+00
   outer loop
     vertex -7.967003e-02 -1.700000e+00  4.077000e-01
     vertex -5.552340e-02 -1.700000e+00  2.330017e-01
     vertex -4.692436e-02 -1.700000e+00  2.285488e-01
   endloop
 endfacet
 facet normal  0.000000e+00 -1.000000e+00  0.000000e+00
   outer loop
     vertex -7.967003e-02 -1.700000e+00  4.077000e-01
     vertex -6.370364e-02 -1.700000e+00  2.381839e-01
     vertex -5.552340e-02 -1.700000e+00  2.330017e-01
   endloop
 endfacet
 facet normal  0.000000e+00 -1.000000e+00  0.000000e+00
   outer loop
     vertex -7.967003e-02 -1.700000e+00  4.077000e-01
     vertex -7.140339e-02 -1.700000e+00  2.440564e-01
     vertex -6.370364e-02 -1.700000e+00  2.381839e-01
   endloop
 endfacet
 facet normal  0.000000e+00 -1.000000e+00  0.000000e+00
   outer loop
     vertex -7.967003e-02 -1.700000e+00  4.077000e-01
     vertex -7.856458e-02 -1.700000e+00  2.505747e-01
     vertex -7.140339e-02 -1.700000e+00  2.440564e-01
   endloop
 endfacet
 facet normal  0.000000e+00 -1.000000e+00 -0.000000e+00
   outer loop
     vertex -7.967003e-02 -1.700000e+00  4.077000e-01
     vertex -8.513317e-02 -1.700000e+00  2.576899e-01
     vertex -7.856458e-02 -1.700000e+00  2.505747e-01
   endloop
 endfacet
 facet normal  0.000000e+00 -1.000000e+00  0.000000e+00
   outer loop
     vertex -7.967003e-02 -1.700000e+00  4.077000e-01
     vertex -9.105965e-02 -1.700000e+00  2.653481e-01
     vertex -8.513317e-02 -1.700000e+00  2.576899e-01
   endloop
 endfacet
 facet normal  0.000000e+00 -1.000000e+00  0.000000e+00
   outer loop
     vertex -7.967003e-02 -1.700000e+00  4.077000e-01
     vertex -9.629929e-02 -1.700000e+00  2.734917e-01
     vertex -9.105965e-02 -1.700000e+00  2.653481e-01
   endloop
 endfacet
 facet normal  0.000000e+00 -1.000000e+00  0.000000e+00
   outer loop
     vertex -7.967003e-02 -1.700000e+00  4.077000e-01
     vertex -1.008126e-01 -1.700000e+00  2.820592e-01
     vertex -9.629929e-02 -1.700000e+00  2.734917e-01
   endloop
 endfacet
 facet normal  0.000000e+00 -1.000000e+00  0.000000e+00
   outer loop
     vertex -7.967003e-02 -1.700000e+00  4.077000e-01
     vertex -1.045655e-01 -1.700000e+00  2.909860e-01
     vertex -1.008126e-01 -1.700000e+00  2.820592e-01
   endloop
 endfacet
 facet normal  0.000000e+00 -1.000000e+00  0.000000e+00
   outer loop
     vertex -7.967003e-02 -1.700000e+00  4.077000e-01
     vertex -1.075297e-01 -1.700000e+00  3.002047e-01
     vertex -1.045655e-01 -1.700000e+00  2.909860e-01
   endloop
 endfacet
 facet normal  0.000000e+00 -1.000000e+00  0.000000e+00
   outer loop
     vertex -7.967003e-02 -1.700000e+00  4.077000e-01
     vertex -1.096828e-01 -1.700000e+00  3.096459e-01
     vertex -1.075297e-01 -1.700000e+00  3.002047e-01
   endloop
 endfacet
 facet normal  0.000000e+00 -1.000000e+00  0.000000e+00
   outer loop
     vertex -7.967003e-02 -1.700000e+00  4.077000e-01
     vertex -1.110087e-01 -1.700000e+00  3.192383e-01
     vertex -1.096828e-01 -1.700000e+00  3.096459e-01
   endloop
 endfacet
 facet normal  0.000000e+00 -1.000000e+00  0.000000e+00
   outer loop
     vertex -7.967003e-02 -1.700000e+00  4.077000e-01
     vertex -1.114972e-01 -1.700000e+00  3.289096e-01
     vertex -1.110087e-01 -1.700000e+00  3.192383e-01
   endloop
 endfacet
 facet normal  0.000000e+00 -1.000000e+00  0.000000e+00
   outer loop
     vertex -7.967003e-02 -1.700000e+00  4.077000e-01
     vertex -1.111448e-01 -1.700000e+00  3.385867e-01
     vertex -1.114972e-01 -1.700000e+00  3.289096e-01
   endloop
 endfacet
 facet normal  0.000000e+00 -1.000000e+00  0.000000e+00
   outer loop
     vertex -7.967003e-02 -1.700000e+00  4.077000e-01
     vertex -1.099541e-01 -1.700000e+00  3.481968e-01
     vertex -1.111448e-01 -1.700000e+00  3.385867e-01
   endloop
 endfacet
 facet normal  0.000000e+00 -1.000000e+00  0.000000e+00
   outer loop
     vertex -7.967003e-02 -1.700000e+00  4.077000e-01
     vertex -1.079340e-01 -1.700000e+00  3.576674e-01
     vertex -1.099541e-01 -1.700000e+00  3.481968e-01
   endloop
 endfacet
 facet normal  0.000000e+00 -1.000000e+00  0.000000e+00
   outer loop
     vertex -7.967003e-02 -1.700000e+00  4.077000e-01
     vertex -1.050998e-01 -1.700000e+00  3.669269e-01
     vertex -1.079340e-01 -1.700000e+00  3.576674e-01
   endloop
 endfacet
 facet normal  0.000000e+00 -1.000000e+00  0.000000e+00
   outer loop
     vertex -7.967003e-02 -1.700000e+00  4.077000e-01
     vertex -1.014728e-01 -1.700000e+00  3.759056e-01
     vertex -1.050998e-01 -1.700000e+00  3.669269e-01
   endloop
 endfacet
 facet normal  0.000000e+00 -1.000000e+00  0.000000e+00
   outer loop
     vertex -7.967003e-02 -1.700000e+00  4.077000e-01
     vertex -9.708054e-02 -1.700000e+00  3.845358e-01
     vertex -1.014728e-01 -1.700000e+00  3.759056e-01
   endloop
 endfacet
 facet normal  0.000000e+00 -1.000000e+00  0.000000e+00
   outer loop
     vertex -7.967003e-02 -1.700000e+00  4.077000e-01
     vertex -9.195600e-02 -1.700000e+00  3.927523e-01
     vertex -9.708054e-02 -1.700000e+00  3.845358e-01
   endloop
 endfacet
 facet normal  0.000000e+00 -1.000000e+00  0.000000e+00
   outer loop
     vertex -7.967003e-02 -1.700000e+00  4.077000e-01
     vertex -8.613787e-02 -1.700000e+00  4.004931e-01
     vertex -9.195600e-02 -1.700000e+00  3.927523e-01
   endloop
 endfacet
 facet normal  0.000000e+00 -1.000000e+00  0.000000e+00
   outer loop
     vertex  7.967003e-02 -1.700000e+00  4.077000e-01
     vertex  9.195600e-02 -1.700000e+00  3.927523e-01
     vertex  8.613787e-02 -1.700000e+00  4.004931e-01
   endloop
 endfacet
 facet normal  0.000000e+00 -1.000000e+00  0.000000e+00
   outer loop
     vertex  7.967003e-02 -1.700000e+00  4.077000e-01
     vertex  9.708054e-02 -1.700000e+00  3.845358e-01
     vertex  9.195600e-02 -1.700000e+00  3.927523e-01
   endloop
 endfacet
 facet normal  0.000000e+00 -1.000000e+00  0.000000e+00
   outer loop
     vertex  7.967003e-02 -1.700000e+00  4.077000e-01
     vertex  1.014728e-01 -1.700000e+00  3.759056e-01
     vertex  9.708054e-02 -1.700000e+00  3.845358e-01
   endloop
 endfacet
 facet normal  0.000000e+00 -1.000000e+00  0.000000e+00
   outer loop
     vertex  7.967003e-02 -1.700000e+00  4.077000e-01
     vertex  1.050998e-01 -1.700000e+00  3.669269e-01
     vertex  1.014728e-01 -1.700000e+00  3.759056e-01
   endloop
 endfacet
 facet normal  0.000000e+00 -1.000000e+00  0.000000e+00
   outer loop
     vertex  7.967003e-02 -1.700000e+00  4.077000e-01
     vertex  1.079340e-01 -1.700000e+00  3.576674e-01
     vertex  1.050998e-01 -1.700000e+00  3.669269e-01
   endloop
 endfacet
 facet normal  0.000000e+00 -1.000000e+00  0.000000e+00
   outer loop
     vertex  7.967003e-02 -1.700000e+00  4.077000e-01
     vertex  1.099541e-01 -1.700000e+00  3.481968e-01
     vertex  1.079340e-01 -1.700000e+00  3.576674e-01
   endloop
 endfacet
 facet normal  0.000000e+00 -1.000000e+00  0.000000e+00
   outer loop
     vertex  7.967003e-02 -1.700000e+00  4.077000e-01
     vertex  1.111448e-01 -1.700000e+00  3.385867e-01
     vertex  1.099541e-01 -1.700000e+00  3.481968e-01
   endloop
 endfacet
 facet normal  0.000000e+00 -1.000000e+00  0.000000e+00
   outer loop
     vertex  7.967003e-02 -1.700000e+00  4.077000e-01
     vertex  1.114972e-01 -1.700000e+00  3.289096e-01
     vertex  1.111448e-01 -1.700000e+00  3.385867e-01
   endloop
 endfacet
 facet normal  0.000000e+00 -1.000000e+00  0.000000e+00
   outer loop
     vertex  7.967003e-02 -1.700000e+00  4.077000e-01
     vertex  1.110087e-01 -1.700000e+00  3.192383e-01
     vertex  1.114972e-01 -1.700000e+00  3.289096e-01
   endloop
 endfacet
 facet normal  0.000000e+00 -1.000000e+00  0.000000e+00
   outer loop
     vertex  7.967003e-02 -1.700000e+00  4.077000e-01
     vertex  1.096828e-01 -1.700000e+00  3.096459e-01
     vertex  1.110087e-01 -1.700000e+00  3.192383e-01
   endloop
 endfacet
 facet normal  0.000000e+00 -1.000000e+00  0.000000e+00
   outer loop
     vertex  7.967003e-02 -1.700000e+00  4.077000e-01
     vertex  1.075297e-01 -1.700000e+00  3.002047e-01
     vertex  1.096828e-01 -1.700000e+00  3.096459e-01
   endloop
 endfacet
 facet normal  0.000000e+00 -1.000000e+00  0.000000e+00
   outer loop
     vertex  7.967003e-02 -1.700000e+00  4.077000e-01
     vertex  1.045655e-01 -1.700000e+00  2.909860e-01
     vertex  1.075297e-01 -1.700000e+00  3.002047e-01
   endloop
 endfacet
 facet normal  0.000000e+00 -1.000000e+00  0.000000e+00
   outer loop
     vertex  7.967003e-02 -1.700000e+00  4.077000e-01
     vertex  1.008126e-01 -1.700000e+00  2.820592e-01
     vertex  1.045655e-01 -1.700000e+00  2.909860e-01
   endloop
 endfacet
 facet normal  0.000000e+00 -1.000000e+00  0.000000e+00
   outer loop
     vertex  7.967003e-02 -1.700000e+00  4.077000e-01
     vertex  9.629929e-02 -1.700000e+00  2.734917e-01
     vertex  1.008126e-01 -1.700000e+00  2.820592e-01
   endloop
 endfacet
 facet normal  0.000000e+00 -1.000000e+00  0.000000e+00
   outer loop
     vertex  7.967003e-02 -1.700000e+00  4.077000e-01
     vertex  9.105965e-02 -1.700000e+00  2.653481e-01
     vertex  9.629929e-02 -1.700000e+00  2.734917e-01
   endloop
 endfacet
 facet normal  0.000000e+00 -1.000000e+00  0.000000e+00
   outer loop
     vertex  7.967003e-02 -1.700000e+00  4.077000e-01
     vertex  8.513317e-02 -1.700000e+00  2.576899e-01
     vertex  9.105965e-02 -1.700000e+00  2.653481e-01
   endloop
 endfacet
 facet normal  0.000000e+00 -1.000000e+00 -0.000000e+00
   outer loop
     vertex  7.967003e-02 -1.700000e+00  4.077000e-01
     vertex  7.856458e-02 -1.700000e+00  2.505747e-01
     vertex  8.513317e-02 -1.700000e+00  2.576899e-01
   endloop
 endfacet
 facet normal  0.000000e+00 -1.000000e+00  0.000000e+00
   outer loop
     vertex  7.967003e-02 -1.700000e+00  4.077000e-01
     vertex  7.140339e-02 -1.700000e+00  2.440564e-01
     vertex  7.856458e-02 -1.700000e+00  2.505747e-01
   endloop
 endfacet
 facet normal  0.000000e+00 -1.000000e+00  0.000000e+00
   outer loop
     vertex  7.967003e-02 -1.700000e+00  4.077000e-01
     vertex  6.370364e-02 -1.700000e+00  2.381839e-01
     vertex  7.140339e-02 -1.700000e+00  2.440564e-01
   endloop
 endfacet
 facet normal  0.000000e+00 -1.000000e+00  0.000000e+00
   outer loop
     vertex  7.967003e-02 -1.700000e+00  4.077000e-01
     vertex  5.552340e-02 -1.700000e+00  2.330017e-01
     vertex  6.370364e-02 -1.700000e+00  2.381839e-01
   endloop
 endfacet
 facet normal  0.000000e+00 -1.000000e+00  0.000000e+00
   outer loop
     vertex  7.967003e-02 -1.700000e+00  4.077000e-01
     vertex  4.692436e-02 -1.700000e+00  2.285488e-01
     vertex  5.552340e-02 -1.700000e+00  2.330017e-01
   endloop
 endfacet
 facet normal  0.000000e+00 -1.000000e+00  0.000000e+00
   outer loop
     vertex  7.967003e-02 -1.700000e+00  4.077000e-01
     vertex  3.797139e-02 -1.700000e+00  2.248588e-01
     vertex  4.692436e-02 -1.700000e+00  2.285488e-01
   endloop
 endfacet
 facet normal  0.000000e+00 -1.000000e+00  0.000000e+00
   outer loop
     vertex  7.967003e-02 -1.700000e+00  4.077000e-01
     vertex  2.873202e-02 -1.700000e+00  2.219595e-01
     vertex  3.797139e-02 -1.700000e+00  2.248588e-01
   endloop
 endfacet
 facet normal  0.000000e+00 -1.000000e+00  0.000000e+00
   outer loop
     vertex  7.967003e-02 -1.700000e+00  4.077000e-01
     vertex  1.927593e-02 -1.700000e+00  2.198728e-01
     vertex  2.873202e-02 -1.700000e+00  2.219595e-01
   endloop
 endfacet
 facet normal  0.000000e+00 -1.000000e+00  0.000000e+00
   outer loop
     vertex  7.967003e-02 -1.700000e+00  4.077000e-01
     vertex  9.674450e-03 -1.700000e+00  2.186145e-01
     vertex  1.927593e-02 -1.700000e+00  2.198728e-01
   endloop
 endfacet
 facet normal  0.000000e+00 -1.000000e+00  0.000000e+00
   outer loop
     vertex  7.967003e-02 -1.700000e+00  4.077000e-01
     vertex  1.646538e-17 -1.700000e+00  2.181940e-01
     vertex  9.674450e-03 -1.700000e+00  2.186145e-01
   endloop
 endfacet
 facet normal  0.000000e+00 -1.000000e+00  0.000000e+00
   outer loop
     vertex  7.967003e-02 -1.700000e+00  4.077000e-01
     vertex -9.674450e-03 -1.700000e+00  2.186145e-01
     vertex  1.646538e-17 -1.700000e+00  2.181940e-01
   endloop
 endfacet
 facet normal  0.000000e+00 -1.000000e+00  0.000000e+00
   outer loop
     vertex  7.967003e-02 -1.700000e+00  4.077000e-01
     vertex -1.927593e-02 -1.700000e+00  2.198728e-01
     vertex -9.674450e-03 -1.700000e+00  2.186145e-01
   endloop
 endfacet
 facet normal -0.000000e+00 -1.000000e+00  0.000000e+00
   outer loop
     vertex  7.967003e-02 -1.700000e+00  4.077000e-01
     vertex -7.967003e-02 -1.700000e+00  4.077000e-01
     vertex -1.927593e-02 -1.700000e+00  2.198728e-01
   endloop
 endfacet
endsolid
